<svg width="270" height="71" viewBox="0 0 270 71" fill="none" xmlns="http://www.w3.org/2000/svg">
<rect x="0.5" y="0.5" width="269" height="70" rx="9.5" fill="white"/>
<rect x="0.5" y="0.5" width="269" height="70" rx="9.5" stroke="black"/>
<path d="M73.0736 52V35.2H74.8976L81.3536 45.688L80.4896 45.664L87.0176 35.2H88.7216V52H86.8496V44.32C86.8496 42.88 86.8736 41.584 86.9216 40.432C86.9696 39.28 87.0576 38.136 87.1856 37L87.5216 37.672L81.4976 47.128H80.2016L74.3456 37.792L74.6096 37C74.7376 38.072 74.8256 39.176 74.8736 40.312C74.9216 41.432 74.9456 42.768 74.9456 44.32V52H73.0736ZM97.8511 52.24C96.7631 52.24 95.7791 51.96 94.8991 51.4C94.0191 50.824 93.3231 50.048 92.8111 49.072C92.2991 48.08 92.0431 46.96 92.0431 45.712C92.0431 44.448 92.3071 43.328 92.8351 42.352C93.3631 41.376 94.0671 40.608 94.9471 40.048C95.8431 39.488 96.8431 39.208 97.9471 39.208C98.6031 39.208 99.2111 39.304 99.7711 39.496C100.331 39.688 100.827 39.96 101.259 40.312C101.707 40.648 102.075 41.048 102.363 41.512C102.667 41.96 102.875 42.448 102.987 42.976L102.459 42.712L102.531 39.472H104.331V52H102.507V48.928L102.987 48.616C102.875 49.096 102.659 49.56 102.339 50.008C102.019 50.44 101.627 50.824 101.163 51.16C100.715 51.496 100.203 51.76 99.6271 51.952C99.0671 52.144 98.4751 52.24 97.8511 52.24ZM98.2591 50.512C99.0911 50.512 99.8351 50.312 100.491 49.912C101.147 49.496 101.659 48.928 102.027 48.208C102.411 47.472 102.603 46.64 102.603 45.712C102.603 44.784 102.411 43.96 102.027 43.24C101.659 42.52 101.147 41.952 100.491 41.536C99.8351 41.12 99.0911 40.912 98.2591 40.912C97.4111 40.912 96.6591 41.12 96.0031 41.536C95.3631 41.952 94.8511 42.52 94.4671 43.24C94.0991 43.96 93.9151 44.784 93.9151 45.712C93.9151 46.624 94.0991 47.448 94.4671 48.184C94.8351 48.904 95.3471 49.472 96.0031 49.888C96.6591 50.304 97.4111 50.512 98.2591 50.512ZM108.318 52V39.472H110.118V52H108.318ZM109.206 36.76C108.758 36.76 108.414 36.648 108.174 36.424C107.95 36.184 107.838 35.864 107.838 35.464C107.838 35.064 107.958 34.744 108.198 34.504C108.438 34.264 108.774 34.144 109.206 34.144C109.638 34.144 109.974 34.264 110.214 34.504C110.454 34.728 110.574 35.048 110.574 35.464C110.574 35.848 110.454 36.16 110.214 36.4C109.974 36.64 109.638 36.76 109.206 36.76ZM114.049 52V39.472H115.825L115.897 42.088L115.609 42.208C115.769 41.664 116.081 41.168 116.545 40.72C117.009 40.272 117.561 39.912 118.201 39.64C118.857 39.352 119.529 39.208 120.217 39.208C121.145 39.208 121.921 39.392 122.545 39.76C123.169 40.128 123.641 40.696 123.961 41.464C124.281 42.232 124.441 43.208 124.441 44.392V52H122.617V44.488C122.617 43.656 122.505 42.976 122.281 42.448C122.073 41.904 121.745 41.504 121.297 41.248C120.849 40.992 120.297 40.872 119.641 40.888C119.097 40.888 118.593 40.984 118.129 41.176C117.665 41.352 117.265 41.6 116.929 41.92C116.593 42.24 116.329 42.608 116.137 43.024C115.945 43.44 115.849 43.888 115.849 44.368V52H114.961C114.849 52 114.721 52 114.577 52C114.433 52 114.257 52 114.049 52ZM135.324 52V35.2H141.9C142.876 35.2 143.756 35.432 144.54 35.896C145.34 36.344 145.972 36.96 146.436 37.744C146.9 38.528 147.132 39.416 147.132 40.408C147.132 41.336 146.908 42.176 146.46 42.928C146.012 43.68 145.404 44.28 144.636 44.728C143.868 45.16 143.004 45.376 142.044 45.376H137.196V52H135.324ZM145.572 52L141.348 44.608L143.148 43.984L147.804 52H145.572ZM137.196 43.552H142.212C142.804 43.552 143.324 43.416 143.772 43.144C144.22 42.872 144.572 42.504 144.828 42.04C145.084 41.56 145.212 41.016 145.212 40.408C145.212 39.752 145.06 39.168 144.756 38.656C144.452 38.144 144.028 37.744 143.484 37.456C142.956 37.168 142.348 37.024 141.66 37.024H137.196V43.552ZM155.499 52.24C154.251 52.24 153.139 51.968 152.163 51.424C151.203 50.88 150.451 50.12 149.907 49.144C149.363 48.168 149.091 47.048 149.091 45.784C149.091 44.808 149.243 43.928 149.547 43.144C149.851 42.344 150.275 41.648 150.819 41.056C151.379 40.464 152.043 40.008 152.811 39.688C153.579 39.352 154.411 39.184 155.307 39.184C156.155 39.184 156.923 39.336 157.611 39.64C158.315 39.944 158.915 40.368 159.411 40.912C159.923 41.44 160.307 42.072 160.563 42.808C160.819 43.544 160.931 44.352 160.899 45.232L160.875 46.072H150.435L150.171 44.56H159.507L159.075 44.968V44.392C159.043 43.816 158.875 43.264 158.571 42.736C158.267 42.192 157.835 41.752 157.275 41.416C156.731 41.08 156.075 40.912 155.307 40.912C154.411 40.912 153.635 41.096 152.979 41.464C152.323 41.816 151.819 42.344 151.467 43.048C151.115 43.752 150.939 44.624 150.939 45.664C150.939 46.656 151.131 47.52 151.515 48.256C151.899 48.976 152.443 49.536 153.147 49.936C153.867 50.336 154.731 50.536 155.739 50.536C156.331 50.536 156.915 50.44 157.491 50.248C158.083 50.04 158.731 49.64 159.435 49.048L160.371 50.344C160.003 50.712 159.563 51.04 159.051 51.328C158.539 51.6 157.979 51.824 157.371 52C156.763 52.16 156.139 52.24 155.499 52.24ZM163.455 57.28V39.472H165.255L165.303 42.52L164.967 42.568C165.111 41.96 165.423 41.408 165.903 40.912C166.383 40.4 166.967 39.992 167.655 39.688C168.343 39.384 169.071 39.232 169.839 39.232C170.959 39.232 171.959 39.512 172.839 40.072C173.735 40.632 174.447 41.4 174.975 42.376C175.503 43.352 175.767 44.472 175.767 45.736C175.767 46.984 175.511 48.096 174.999 49.072C174.487 50.048 173.783 50.824 172.887 51.4C171.991 51.96 170.983 52.24 169.863 52.24C169.079 52.24 168.335 52.08 167.631 51.76C166.927 51.44 166.327 51.024 165.831 50.512C165.335 49.984 165.007 49.416 164.847 48.808H165.279V57.28H163.455ZM169.575 50.512C170.423 50.512 171.175 50.304 171.831 49.888C172.487 49.472 173.007 48.904 173.391 48.184C173.775 47.464 173.967 46.648 173.967 45.736C173.967 44.808 173.775 43.984 173.391 43.264C173.007 42.544 172.487 41.976 171.831 41.56C171.175 41.144 170.423 40.936 169.575 40.936C168.727 40.936 167.967 41.144 167.295 41.56C166.639 41.96 166.119 42.52 165.735 43.24C165.351 43.96 165.159 44.784 165.159 45.712C165.159 46.64 165.351 47.464 165.735 48.184C166.119 48.904 166.639 49.472 167.295 49.888C167.967 50.304 168.727 50.512 169.575 50.512ZM183.929 52.24C182.681 52.24 181.569 51.96 180.593 51.4C179.633 50.84 178.873 50.064 178.313 49.072C177.769 48.08 177.497 46.952 177.497 45.688C177.497 44.44 177.769 43.328 178.313 42.352C178.873 41.376 179.633 40.608 180.593 40.048C181.569 39.488 182.681 39.208 183.929 39.208C185.161 39.208 186.257 39.488 187.217 40.048C188.193 40.608 188.953 41.376 189.497 42.352C190.057 43.328 190.337 44.44 190.337 45.688C190.337 46.952 190.057 48.08 189.497 49.072C188.953 50.064 188.193 50.84 187.217 51.4C186.257 51.96 185.161 52.24 183.929 52.24ZM183.929 50.536C184.809 50.536 185.593 50.328 186.281 49.912C186.969 49.48 187.505 48.904 187.889 48.184C188.273 47.448 188.465 46.616 188.465 45.688C188.465 44.76 188.273 43.936 187.889 43.216C187.505 42.496 186.969 41.936 186.281 41.536C185.593 41.12 184.809 40.912 183.929 40.912C183.049 40.912 182.257 41.12 181.553 41.536C180.865 41.936 180.321 42.504 179.921 43.24C179.537 43.96 179.353 44.776 179.369 45.688C179.353 46.616 179.537 47.448 179.921 48.184C180.321 48.904 180.865 49.48 181.553 49.912C182.257 50.328 183.049 50.536 183.929 50.536ZM197.067 52.24C195.995 52.24 195.035 52.04 194.187 51.64C193.339 51.24 192.667 50.712 192.171 50.056L193.443 48.952C193.907 49.512 194.451 49.936 195.075 50.224C195.715 50.512 196.427 50.656 197.211 50.656C197.611 50.656 197.971 50.616 198.291 50.536C198.611 50.44 198.891 50.304 199.131 50.128C199.371 49.952 199.555 49.744 199.683 49.504C199.811 49.264 199.875 49 199.875 48.712C199.875 48.184 199.643 47.744 199.179 47.392C198.971 47.248 198.675 47.104 198.291 46.96C197.907 46.8 197.443 46.648 196.899 46.504C196.003 46.248 195.259 45.992 194.667 45.736C194.075 45.464 193.611 45.152 193.275 44.8C193.035 44.512 192.851 44.2 192.723 43.864C192.611 43.528 192.555 43.16 192.555 42.76C192.555 42.248 192.659 41.776 192.867 41.344C193.091 40.912 193.395 40.536 193.779 40.216C194.179 39.88 194.643 39.632 195.171 39.472C195.715 39.296 196.299 39.208 196.923 39.208C197.515 39.208 198.099 39.288 198.675 39.448C199.251 39.608 199.787 39.84 200.283 40.144C200.779 40.448 201.203 40.808 201.555 41.224L200.451 42.424C200.147 42.104 199.811 41.816 199.443 41.56C199.075 41.304 198.683 41.104 198.267 40.96C197.867 40.816 197.451 40.744 197.019 40.744C196.635 40.744 196.275 40.792 195.939 40.888C195.619 40.984 195.339 41.12 195.099 41.296C194.875 41.456 194.699 41.656 194.571 41.896C194.459 42.136 194.403 42.4 194.403 42.688C194.403 42.928 194.451 43.144 194.547 43.336C194.643 43.528 194.779 43.696 194.955 43.84C195.179 44.016 195.491 44.184 195.891 44.344C196.307 44.488 196.819 44.64 197.427 44.8C198.131 44.992 198.723 45.192 199.203 45.4C199.699 45.592 200.107 45.824 200.427 46.096C200.859 46.416 201.163 46.784 201.339 47.2C201.531 47.616 201.627 48.088 201.627 48.616C201.627 49.32 201.427 49.944 201.027 50.488C200.643 51.032 200.107 51.464 199.419 51.784C198.731 52.088 197.947 52.24 197.067 52.24ZM204.927 52V39.472H206.727V52H204.927ZM205.815 36.76C205.367 36.76 205.023 36.648 204.783 36.424C204.559 36.184 204.447 35.864 204.447 35.464C204.447 35.064 204.567 34.744 204.807 34.504C205.047 34.264 205.383 34.144 205.815 34.144C206.247 34.144 206.583 34.264 206.823 34.504C207.063 34.728 207.183 35.048 207.183 35.464C207.183 35.848 207.063 36.16 206.823 36.4C206.583 36.64 206.247 36.76 205.815 36.76ZM212.386 52V36.184H214.186V52H212.386ZM209.554 41.2V39.472H217.354V41.2H209.554ZM224.991 52.24C223.743 52.24 222.631 51.96 221.655 51.4C220.695 50.84 219.935 50.064 219.375 49.072C218.831 48.08 218.559 46.952 218.559 45.688C218.559 44.44 218.831 43.328 219.375 42.352C219.935 41.376 220.695 40.608 221.655 40.048C222.631 39.488 223.743 39.208 224.991 39.208C226.223 39.208 227.319 39.488 228.279 40.048C229.255 40.608 230.015 41.376 230.559 42.352C231.119 43.328 231.399 44.44 231.399 45.688C231.399 46.952 231.119 48.08 230.559 49.072C230.015 50.064 229.255 50.84 228.279 51.4C227.319 51.96 226.223 52.24 224.991 52.24ZM224.991 50.536C225.871 50.536 226.655 50.328 227.343 49.912C228.031 49.48 228.567 48.904 228.951 48.184C229.335 47.448 229.527 46.616 229.527 45.688C229.527 44.76 229.335 43.936 228.951 43.216C228.567 42.496 228.031 41.936 227.343 41.536C226.655 41.12 225.871 40.912 224.991 40.912C224.111 40.912 223.319 41.12 222.615 41.536C221.927 41.936 221.383 42.504 220.983 43.24C220.599 43.96 220.415 44.776 220.431 45.688C220.415 46.616 220.599 47.448 220.983 48.184C221.383 48.904 221.927 49.48 222.615 49.912C223.319 50.328 224.111 50.536 224.991 50.536ZM234.025 52V39.472H235.825L235.873 42.808L235.681 42.352C235.857 41.792 236.137 41.272 236.521 40.792C236.921 40.312 237.393 39.928 237.937 39.64C238.481 39.352 239.081 39.208 239.737 39.208C240.009 39.208 240.265 39.232 240.505 39.28C240.745 39.312 240.945 39.36 241.105 39.424L240.601 41.44C240.393 41.344 240.177 41.28 239.953 41.248C239.745 41.2 239.545 41.176 239.353 41.176C238.809 41.176 238.321 41.272 237.889 41.464C237.457 41.656 237.089 41.928 236.785 42.28C236.481 42.616 236.249 43.008 236.089 43.456C235.929 43.904 235.849 44.384 235.849 44.896V52H234.025ZM245.091 57.52L247.515 51.616L247.683 53.32L241.395 39.472H243.435L247.731 49.072C247.859 49.328 247.987 49.632 248.115 49.984C248.243 50.32 248.363 50.656 248.475 50.992L247.803 50.92C247.915 50.648 248.019 50.368 248.115 50.08C248.227 49.792 248.331 49.512 248.427 49.24L252.195 39.472H254.259L249.195 52L247.035 57.52H245.091Z" fill="black"/>
<path d="M72.2608 28V19.6H73.8208V26.56H77.6968V28H72.2608ZM79.3836 28V21.676H80.8596V28H79.3836ZM80.1036 20.332C79.8076 20.332 79.5756 20.26 79.4076 20.116C79.2476 19.964 79.1676 19.752 79.1676 19.48C79.1676 19.224 79.2516 19.016 79.4196 18.856C79.5876 18.696 79.8156 18.616 80.1036 18.616C80.4076 18.616 80.6396 18.692 80.7996 18.844C80.9676 18.988 81.0516 19.2 81.0516 19.48C81.0516 19.728 80.9676 19.932 80.7996 20.092C80.6316 20.252 80.3996 20.332 80.1036 20.332ZM82.7312 28V21.676H84.1712L84.1952 22.972L83.9192 23.116C83.9992 22.828 84.1552 22.568 84.3872 22.336C84.6192 22.096 84.8952 21.904 85.2152 21.76C85.5352 21.616 85.8632 21.544 86.1992 21.544C86.6792 21.544 87.0792 21.64 87.3992 21.832C87.7272 22.024 87.9712 22.312 88.1312 22.696C88.2992 23.08 88.3832 23.56 88.3832 24.136V28H86.9072V24.244C86.9072 23.924 86.8632 23.66 86.7752 23.452C86.6872 23.236 86.5512 23.08 86.3672 22.984C86.1832 22.88 85.9592 22.832 85.6952 22.84C85.4792 22.84 85.2792 22.876 85.0952 22.948C84.9192 23.012 84.7632 23.108 84.6272 23.236C84.4992 23.356 84.3952 23.496 84.3152 23.656C84.2432 23.816 84.2072 23.992 84.2072 24.184V28H83.4752C83.3312 28 83.1952 28 83.0672 28C82.9472 28 82.8352 28 82.7312 28ZM91.4237 26.068L91.1357 24.688L94.1357 21.676H96.1037L91.4237 26.068ZM90.0437 28V19.12H91.5197V28H90.0437ZM94.3157 28L91.9877 25.18L93.0317 24.292L96.1397 28H94.3157ZM101.321 28V20.068H102.797V28H101.321ZM100.073 23.044V21.676H104.177V23.044H100.073ZM108.135 28.12C107.503 28.12 106.939 27.98 106.443 27.7C105.947 27.412 105.555 27.02 105.267 26.524C104.979 26.028 104.835 25.464 104.835 24.832C104.835 24.2 104.979 23.636 105.267 23.14C105.555 22.644 105.947 22.256 106.443 21.976C106.939 21.688 107.503 21.544 108.135 21.544C108.759 21.544 109.319 21.688 109.815 21.976C110.311 22.256 110.699 22.644 110.979 23.14C111.267 23.636 111.411 24.2 111.411 24.832C111.411 25.464 111.267 26.028 110.979 26.524C110.699 27.02 110.311 27.412 109.815 27.7C109.319 27.98 108.759 28.12 108.135 28.12ZM108.135 26.812C108.479 26.812 108.783 26.724 109.047 26.548C109.319 26.372 109.531 26.136 109.683 25.84C109.843 25.544 109.919 25.208 109.911 24.832C109.919 24.448 109.843 24.108 109.683 23.812C109.531 23.516 109.319 23.284 109.047 23.116C108.783 22.94 108.479 22.852 108.135 22.852C107.791 22.852 107.479 22.94 107.199 23.116C106.927 23.284 106.715 23.52 106.563 23.824C106.411 24.12 106.335 24.456 106.335 24.832C106.335 25.208 106.411 25.544 106.563 25.84C106.715 26.136 106.927 26.372 107.199 26.548C107.479 26.724 107.791 26.812 108.135 26.812Z" fill="black"/>
<path d="M35.5 12.5312C22.8147 12.5312 12.5312 22.8147 12.5312 35.5C12.5312 48.1853 22.8147 58.4688 35.5 58.4688C48.1853 58.4688 58.4688 48.1853 58.4688 35.5C58.4688 22.8147 48.1853 12.5312 35.5 12.5312Z" fill="#19B9DC"/>
<path d="M35.5 18.752C28.3397 18.752 21.9714 22.8571 19.1946 28.9563C16.7826 34.2541 17.5652 40.8377 21.0847 45.1002C25.2095 50.0957 29.8813 50.6176 34.3397 49.8136C38.5977 49.0456 42.7135 45.5611 42.7137 40.1715C42.7137 36.7792 39.5 33.2749 35.536 33.2749C31.5718 33.2749 28.3582 36.7792 28.3582 40.1715C28.3582 43.5639 31.5718 45.5607 35.536 45.5607C35.8983 45.5607 36.2467 45.528 36.5947 45.495C35.9626 45.9343 35.2477 46.303 34.4653 46.5596C30.9761 47.7043 26.6314 47.3132 23.2979 43.2759C20.4873 39.8721 19.8454 34.4586 21.8085 30.1466C24.1196 25.0703 29.4662 21.623 35.5 21.623C41.0837 21.623 46.4307 24.5547 48.9942 29.7279C50.4287 32.623 50.7227 36.0958 49.7598 39.3042C48.7526 42.6599 46.4419 45.5104 42.9708 47.4629C42.7453 47.5898 42.6592 47.8736 42.7794 48.103C43.0613 48.6402 43.3837 49.2546 43.6708 49.8017C43.7958 50.04 44.0936 50.1303 44.3286 49.999C48.4703 47.6847 51.2843 44.217 52.5112 40.1297C53.6836 36.2237 53.3238 31.995 51.5663 28.4479C48.4892 22.2386 42.1204 18.752 35.5 18.752ZM31.8813 26.3663C30.4542 26.3663 29.2973 27.5232 29.2973 28.9503C29.2973 30.3774 30.4542 31.5343 31.8813 31.5343C33.3084 31.5343 34.4653 30.3774 34.4653 28.9503C34.4653 27.5232 33.3084 26.3663 31.8813 26.3663ZM39.1846 26.3663C37.7575 26.3663 36.6006 27.5232 36.6006 28.9503C36.6006 30.3774 37.7575 31.5343 39.1846 31.5343C40.6117 31.5343 41.7686 30.3774 41.7686 28.9503C41.7686 27.5232 40.6117 26.3663 39.1846 26.3663ZM26.1091 30.6909C24.6821 30.6909 23.5252 31.8478 23.5252 33.2749C23.5252 34.702 24.6821 35.8589 26.1091 35.8589C27.5362 35.8589 28.6931 34.702 28.6931 33.2749C28.6931 31.8478 27.5362 30.6909 26.1091 30.6909ZM44.8908 30.6909C43.4639 30.6909 42.3068 31.8478 42.3068 33.2749C42.3068 34.702 43.4639 35.8589 44.8908 35.8589C46.3179 35.8589 47.4748 34.702 47.4748 33.2749C47.4748 31.8478 46.3179 30.6909 44.8908 30.6909Z" fill="#D7FFFF"/>
</svg>
